name Walk4.mot
datacolumns 19
datarows 22
range 3.13500000 3.15600000
endheader

                time	   L_ground_force_vx	   L_ground_force_vy	   L_ground_force_vz	   L_ground_force_px	   L_ground_force_py	   L_ground_force_pz	   R_ground_force_vx	   R_ground_force_vy	   R_ground_force_vz	   R_ground_force_px	   R_ground_force_py	   R_ground_force_pz	   L_ground_torque_x	   L_ground_torque_y	   L_ground_torque_z	   R_ground_torque_x	   R_ground_torque_y	   R_ground_torque_z	
          3.13500000	          0.00000000	          0.00000000	          0.00000000	          0.00000000	          0.00000000	          0.00000000	         32.26334914	        165.96765631	          9.76088142	          0.46790800	          0.00000000	          0.11814540	          0.00000000	          0.00000000	          0.00000000	          0.00000000	         -6.45045404	          0.00000000	
          3.13600000	          0.00000000	          0.00000000	          0.00000000	          0.00000000	          0.00000000	          0.00000000	         30.11655624	        161.23104655	          9.04944912	          0.46848122	          0.00000000	          0.11859800	          0.00000000	          0.00000000	          0.00000000	          0.00000000	         -6.04528812	          0.00000000	
          3.13700000	          0.00000000	          0.00000000	          0.00000000	          0.00000000	          0.00000000	          0.00000000	         28.13084650	        156.50372460	          8.30871235	          0.46902821	          0.00000000	          0.11906457	          0.00000000	          0.00000000	          0.00000000	          0.00000000	         -5.67235276	          0.00000000	
          3.13800000	          0.00000000	          0.00000000	          0.00000000	          0.00000000	          0.00000000	          0.00000000	         26.31155141	        151.70848287	          7.57025997	          0.46958381	          0.00000000	          0.11940797	          0.00000000	          0.00000000	          0.00000000	          0.00000000	         -5.32797881	          0.00000000	
          3.13900000	          0.00000000	          0.00000000	          0.00000000	          0.00000000	          0.00000000	          0.00000000	         24.65457017	        146.84770112	          6.86005571	          0.47012580	          0.00000000	          0.11954143	          0.00000000	          0.00000000	          0.00000000	          0.00000000	         -5.01176806	          0.00000000	
          3.14000000	          0.00000000	          0.00000000	          0.00000000	          0.00000000	          0.00000000	          0.00000000	         23.14628454	        141.95994419	          6.20572424	          0.47061205	          0.00000000	          0.11949873	          0.00000000	          0.00000000	          0.00000000	          0.00000000	         -4.72477683	          0.00000000	
          3.14100000	          0.00000000	          0.00000000	          0.00000000	          0.00000000	          0.00000000	          0.00000000	         21.77316443	        137.04571186	          5.63139610	          0.47107594	          0.00000000	          0.11938513	          0.00000000	          0.00000000	          0.00000000	          0.00000000	         -4.46837378	          0.00000000	
          3.14200000	          0.00000000	          0.00000000	          0.00000000	          0.00000000	          0.00000000	          0.00000000	         20.51656720	        132.05707704	          5.13432274	          0.47160633	          0.00000000	          0.11925904	          0.00000000	          0.00000000	          0.00000000	          0.00000000	         -4.24068638	          0.00000000	
          3.14300000	          0.00000000	          0.00000000	          0.00000000	          0.00000000	          0.00000000	          0.00000000	         19.34791614	        126.96859546	          4.69362897	          0.47227530	          0.00000000	          0.11913876	          0.00000000	          0.00000000	          0.00000000	          0.00000000	         -4.03361332	          0.00000000	
          3.14400000	          0.00000000	          0.00000000	          0.00000000	          0.00000000	          0.00000000	          0.00000000	         18.24442490	        121.82275327	          4.29628981	          0.47312462	          0.00000000	          0.11906298	          0.00000000	          0.00000000	          0.00000000	          0.00000000	         -3.83623126	          0.00000000	
          3.14500000	          0.00000000	          0.00000000	          0.00000000	          0.00000000	          0.00000000	          0.00000000	         17.20068408	        116.69640103	          3.93556113	          0.47413348	          0.00000000	          0.11904058	          0.00000000	          0.00000000	          0.00000000	          0.00000000	         -3.64057056	          0.00000000	
          3.14600000	          0.00000000	          0.00000000	          0.00000000	          0.00000000	          0.00000000	          0.00000000	         16.22082488	        111.65771556	          3.60212422	          0.47522930	          0.00000000	          0.11897386	          0.00000000	          0.00000000	          0.00000000	          0.00000000	         -3.44433435	          0.00000000	
          3.14700000	          0.00000000	          0.00000000	          0.00000000	          0.00000000	          0.00000000	          0.00000000	         15.30478807	        106.76144854	          3.29185308	          0.47633910	          0.00000000	          0.11873586	          0.00000000	          0.00000000	          0.00000000	          0.00000000	         -3.25152067	          0.00000000	
          3.14800000	          0.00000000	          0.00000000	          0.00000000	          0.00000000	          0.00000000	          0.00000000	         14.43923578	        102.04471271	          3.00556823	          0.47737941	          0.00000000	          0.11831519	          0.00000000	          0.00000000	          0.00000000	          0.00000000	         -3.07033694	          0.00000000	
          3.14900000	          0.00000000	          0.00000000	          0.00000000	          0.00000000	          0.00000000	          0.00000000	         13.60260191	         97.50356359	          2.73878416	          0.47829329	          0.00000000	          0.11777733	          0.00000000	          0.00000000	          0.00000000	          0.00000000	         -2.90566327	          0.00000000	
          3.15000000	          0.00000000	          0.00000000	          0.00000000	          0.00000000	          0.00000000	          0.00000000	         12.78207461	         93.09905593	          2.49100376	          0.47912181	          0.00000000	          0.11716939	          0.00000000	          0.00000000	          0.00000000	          0.00000000	         -2.75229327	          0.00000000	
          3.15100000	          0.00000000	          0.00000000	          0.00000000	          0.00000000	          0.00000000	          0.00000000	         11.97967899	         88.79816489	          2.27624947	          0.47998839	          0.00000000	          0.11653643	          0.00000000	          0.00000000	          0.00000000	          0.00000000	         -2.59891664	          0.00000000	
          3.15200000	          0.00000000	          0.00000000	          0.00000000	          0.00000000	          0.00000000	          0.00000000	         11.20095647	         84.58398607	          2.10656696	          0.48101409	          0.00000000	          0.11588712	          0.00000000	          0.00000000	          0.00000000	          0.00000000	         -2.43834894	          0.00000000	
          3.15300000	          0.00000000	          0.00000000	          0.00000000	          0.00000000	          0.00000000	          0.00000000	         10.44562098	         80.43839672	          1.97307795	          0.48224204	          0.00000000	          0.11520552	          0.00000000	          0.00000000	          0.00000000	          0.00000000	         -2.27158270	          0.00000000	
          3.15400000	          0.00000000	          0.00000000	          0.00000000	          0.00000000	          0.00000000	          0.00000000	          9.70780828	         76.34961913	          1.84835199	          0.48364600	          0.00000000	          0.11458217	          0.00000000	          0.00000000	          0.00000000	          0.00000000	         -2.10459415	          0.00000000	
          3.15500000	          0.00000000	          0.00000000	          0.00000000	          0.00000000	          0.00000000	          0.00000000	          8.97954827	         72.33327172	          1.70368410	          0.48514806	          0.00000000	          0.11415827	          0.00000000	          0.00000000	          0.00000000	          0.00000000	         -1.94379579	          0.00000000	
          3.15600000	          0.00000000	          0.00000000	          0.00000000	          0.00000000	          0.00000000	          0.00000000	          8.25453194	         68.43401286	          1.52813863	          0.48657133	          0.00000000	          0.11396597	          0.00000000	          0.00000000	          0.00000000	          0.00000000	         -1.79288044	          0.00000000	
